<?xml version="1.0" standalone="no"?>
<!DOCTYPE svg PUBLIC "-//W3C//DTD SVG 20010904//EN"
 "http://www.w3.org/TR/2001/REC-SVG-20010904/DTD/svg10.dtd">
<svg version="1.0" xmlns="http://www.w3.org/2000/svg"
 width="1772.000000pt" height="1772.000000pt" viewBox="0 0 1772.000000 1772.000000"
 preserveAspectRatio="xMidYMid meet">
<metadata>
Created by potrace 1.14, written by Peter Selinger 2001-2017
</metadata>
<g transform="translate(0.000000,1772.000000) scale(0.100000,-0.100000)"
fill="#000000" stroke="none">
<path d="M8158 13499 c-2 -15 -1 -35 2 -45 4 -10 4 -34 0 -54 -4 -20 -4 -44
-1 -53 3 -9 4 -51 1 -94 -3 -43 -3 -98 0 -123 3 -25 3 -63 0 -85 -3 -22 -2
-59 1 -82 3 -24 3 -43 -1 -43 -4 0 -4 -17 0 -38 3 -21 3 -47 0 -58 -4 -10 -4
-28 -1 -39 4 -11 4 -38 1 -60 -3 -22 -3 -58 0 -80 3 -22 3 -56 0 -75 -3 -19
-3 -55 0 -80 3 -25 3 -63 0 -85 -3 -22 -2 -59 1 -82 3 -24 3 -43 -1 -43 -4 0
-4 -17 0 -38 3 -21 3 -47 0 -58 -4 -10 -4 -29 1 -41 5 -12 5 -24 1 -27 -4 -2
-5 -27 -4 -55 l4 -51 89 0 89 0 0 758 0 757 -89 0 c-89 0 -89 0 -93 -26z"/>
<path d="M8672 13520 c-4 -3 -7 -342 -7 -755 l1 -750 89 0 90 0 0 755 0 755
-83 0 c-46 0 -86 -2 -90 -5z"/>
<path d="M10460 13483 c-40 -36 -51 -97 -25 -141 23 -37 53 -52 109 -52 38 0
48 5 76 37 29 32 32 41 27 82 -7 63 -49 101 -112 101 -35 0 -52 -6 -75 -27z"/>
<path d="M9735 13460 c-17 -4 -41 -6 -53 -5 -12 1 -22 -1 -22 -5 0 -4 -6 -7
-12 -8 -55 -3 -160 -49 -235 -101 -72 -51 -169 -150 -193 -198 -8 -15 -24 -44
-35 -63 -28 -48 -67 -169 -69 -215 -1 -11 -4 -24 -7 -30 -7 -12 -3 -271 5
-300 29 -111 40 -144 67 -198 82 -162 235 -288 394 -322 11 -3 43 -10 71 -16
51 -12 275 -8 339 6 61 12 104 26 149 46 l46 20 0 89 0 88 -48 -23 c-42 -20
-135 -52 -182 -62 -50 -11 -204 -9 -259 3 -166 35 -303 154 -355 308 -56 165
-50 363 16 519 27 64 97 158 141 188 17 13 34 26 37 30 13 16 141 68 190 77
72 13 241 7 305 -11 28 -8 74 -24 103 -36 l53 -21 -3 96 -3 97 -45 13 c-44 14
-73 20 -135 30 -49 8 -228 11 -260 4z"/>
<path d="M5654 13440 c-19 -5 -19 -22 -19 -718 l0 -712 93 0 c50 0 92 3 93 8
1 4 2 149 2 322 l2 315 363 1 362 1 0 -324 0 -323 90 0 c50 0 91 3 91 8 1 4 2
324 3 711 1 570 -1 704 -12 709 -7 2 -48 5 -90 5 l-77 1 -3 -312 -2 -312 -363
2 -362 3 0 302 c-1 166 -4 305 -7 308 -8 8 -139 12 -164 5z"/>
<path d="M7392 13044 c-187 -38 -326 -194 -370 -415 -9 -49 -8 -203 3 -254 21
-104 63 -189 124 -253 94 -101 201 -137 376 -129 121 5 204 25 274 66 l46 27
1 77 c1 59 -2 77 -12 77 -8 0 -14 -3 -14 -7 0 -13 -101 -61 -160 -77 -106 -28
-214 -25 -289 10 -97 46 -169 166 -167 279 l1 30 355 0 355 0 1 90 c1 194 -65
348 -184 423 -93 60 -220 80 -340 56z m216 -163 c70 -36 120 -124 125 -218 l2
-38 -268 -2 -269 -3 7 33 c26 118 118 222 220 248 46 11 142 1 183 -20z"/>
<path d="M10443 12520 l0 -510 89 0 c63 0 88 3 89 13 0 6 1 235 1 507 l1 495
-90 3 -90 3 0 -511z"/>
<path d="M10812 13018 c3 -7 44 -141 91 -298 47 -157 100 -330 117 -385 17
-55 33 -107 35 -115 17 -62 46 -161 54 -183 10 -27 12 -27 100 -27 75 0 90 3
96 18 7 17 153 485 160 512 2 8 17 58 34 110 17 52 34 111 38 130 l7 35 8 -35
c4 -19 9 -44 12 -55 2 -11 30 -108 61 -215 66 -228 88 -303 110 -385 32 -122
24 -115 130 -115 l92 0 19 63 c10 34 18 64 19 67 1 3 6 21 12 40 41 134 253
841 253 845 0 3 -40 5 -88 5 l-88 0 -27 -107 c-31 -125 -99 -383 -122 -463 -8
-30 -17 -66 -20 -80 -3 -14 -14 -56 -24 -94 -11 -37 -19 -71 -18 -75 1 -3 -2
-8 -7 -11 -5 -3 -10 11 -12 30 -4 30 -67 265 -94 347 -6 18 -13 40 -14 50 -2
10 -13 50 -25 88 -11 39 -26 90 -32 115 -7 25 -14 50 -15 55 -2 6 -11 39 -22
75 l-19 65 -86 3 -86 3 -11 -43 c-6 -24 -18 -64 -26 -89 -8 -25 -16 -55 -19
-67 -2 -12 -7 -27 -10 -32 -3 -5 -8 -18 -10 -27 -1 -10 -22 -81 -45 -158 -46
-153 -73 -247 -98 -342 -18 -66 -32 -82 -32 -35 0 15 -7 48 -15 75 -8 26 -14
49 -15 52 0 3 -2 10 -5 17 -6 20 -47 171 -50 188 -2 8 -4 15 -5 15 -1 0 -3 7
-5 15 -2 8 -20 76 -40 150 -20 74 -44 167 -54 205 l-18 70 -98 3 c-76 2 -96 0
-93 -10z"/>
<path d="M8506 11627 c-15 -12 -40 -32 -56 -44 -15 -13 -33 -23 -39 -23 -6 0
-11 -4 -11 -8 0 -5 -10 -14 -22 -20 -13 -7 -54 -34 -93 -62 -38 -28 -104 -73
-145 -102 -41 -29 -79 -56 -85 -61 -5 -4 -23 -17 -40 -27 -16 -11 -61 -42
-100 -69 -38 -28 -77 -55 -85 -61 -86 -58 -509 -354 -521 -363 -43 -33 -79
-57 -89 -57 -5 0 -10 -4 -10 -8 0 -4 -15 -16 -32 -27 -18 -10 -38 -24 -45 -29
-6 -6 -27 -21 -45 -34 -63 -45 -423 -294 -585 -407 -50 -35 -160 -112 -245
-172 -84 -59 -160 -112 -169 -118 -10 -5 -62 -41 -116 -80 -54 -38 -132 -93
-173 -121 -71 -48 -75 -54 -76 -90 -1 -22 -3 -43 -4 -49 -1 -5 -1 -14 0 -20 6
-27 4 -258 -3 -262 -4 -2 -4 -9 0 -15 9 -16 10 -139 1 -145 -5 -2 -5 -9 -1
-16 9 -15 10 -138 0 -144 -4 -2 -4 -9 0 -15 9 -16 10 -139 1 -145 -5 -2 -5 -9
-1 -16 9 -15 10 -178 0 -184 -4 -2 -4 -9 -1 -15 10 -16 11 -208 1 -208 -4 0
-4 -8 1 -17 4 -10 7 -123 7 -250 -1 -230 2 -252 31 -224 9 10 216 131 314 184
30 16 63 37 73 45 9 8 17 11 17 7 0 -4 8 -1 18 7 9 9 94 59 187 113 94 54 184
106 200 116 l30 18 0 -202 c0 -111 3 -224 6 -250 3 -26 2 -50 -3 -53 -5 -3 -6
-9 -3 -14 3 -5 8 -56 10 -112 8 -161 24 -381 31 -418 2 -14 7 -50 10 -80 9
-82 13 -115 14 -115 1 0 3 -9 5 -20 1 -11 5 -38 9 -60 3 -22 8 -51 12 -65 3
-14 7 -36 9 -50 11 -68 28 -126 41 -136 7 -6 15 -20 17 -30 2 -10 7 -28 11
-39 5 -11 12 -32 18 -47 6 -15 9 -30 9 -33 -1 -3 5 -13 14 -21 8 -9 15 -24 15
-34 0 -10 4 -20 9 -22 5 -1 20 -25 35 -53 28 -53 48 -87 56 -95 3 -3 21 -27
40 -55 55 -79 75 -102 226 -251 78 -77 170 -160 204 -185 34 -24 76 -56 93
-71 18 -15 37 -28 44 -28 6 0 13 -3 15 -7 3 -8 112 -88 223 -165 68 -46 302
-191 362 -223 26 -14 55 -30 63 -35 39 -25 151 -90 155 -90 2 0 32 -18 67 -40
l62 -39 66 37 c36 20 80 44 98 53 18 10 39 23 47 29 8 7 15 9 15 5 0 -5 8 -1
18 7 9 8 73 46 142 84 141 78 132 73 240 137 44 26 84 47 90 47 5 0 10 3 10 8
0 4 25 20 55 37 30 16 55 33 55 36 0 4 10 11 23 15 12 4 36 17 53 30 17 13 34
24 37 24 15 0 329 218 402 280 17 14 51 41 75 60 48 38 254 242 283 281 78
106 113 161 156 244 28 52 48 95 45 95 -2 0 3 11 12 25 8 13 13 29 9 35 -3 5
-2 10 3 10 7 0 17 23 38 95 13 42 35 124 39 143 2 12 6 30 9 40 8 25 15 70 21
132 4 30 8 66 11 80 24 136 24 656 0 1013 -2 20 -1 37 1 37 2 0 21 -11 43 -25
22 -14 42 -25 45 -25 3 0 22 -11 43 -23 20 -13 51 -32 67 -43 17 -10 33 -17
38 -16 4 1 7 -3 7 -8 0 -6 5 -10 12 -10 6 0 34 -15 62 -32 28 -18 53 -33 56
-33 3 0 16 -8 30 -17 14 -8 132 -77 262 -151 l238 -136 0 889 -1 889 -37 22
c-20 13 -39 26 -42 29 -3 3 -48 36 -100 72 -52 36 -273 188 -490 338 -217 151
-431 298 -475 329 -44 30 -145 100 -225 156 -80 55 -156 108 -170 117 -34 24
-140 98 -364 253 -103 72 -195 135 -204 140 -9 6 -19 13 -22 16 -3 3 -54 39
-115 81 -60 41 -214 147 -341 235 -127 89 -249 172 -271 186 l-40 25 -27 -21z"/>
<path d="M6135 7978 c-121 -71 -245 -144 -275 -161 -89 -49 -88 -48 -85 -81
12 -118 17 -167 20 -211 2 -27 6 -69 9 -92 3 -24 9 -62 12 -85 11 -87 15 -114
20 -138 10 -49 16 -86 18 -116 2 -17 6 -35 9 -40 3 -5 8 -25 11 -44 7 -46 23
-115 26 -115 1 0 4 -11 7 -25 7 -39 11 -55 13 -55 1 0 3 -7 5 -15 2 -8 9 -33
15 -55 6 -22 12 -47 13 -55 1 -8 5 -17 8 -20 3 -3 15 -34 26 -70 12 -36 27
-78 34 -95 7 -16 13 -36 15 -43 7 -37 143 -307 173 -344 8 -10 11 -18 6 -18
-4 0 4 -15 19 -34 14 -19 26 -39 26 -45 0 -6 4 -11 8 -11 5 0 14 -11 20 -25 7
-14 16 -31 22 -38 5 -7 38 -48 72 -92 104 -133 293 -329 418 -435 35 -30 73
-63 85 -73 11 -10 45 -37 75 -60 30 -23 57 -44 60 -48 3 -3 23 -18 45 -35 39
-28 47 -35 79 -61 8 -7 20 -13 25 -13 6 0 14 -6 18 -13 13 -20 326 -223 528
-342 33 -20 67 -40 75 -45 16 -10 155 -92 205 -120 17 -9 134 -76 262 -148
127 -73 234 -132 238 -132 5 0 192 104 235 130 8 5 31 18 50 28 19 10 76 41
125 69 50 28 114 63 143 79 204 112 436 246 443 256 3 6 8 9 10 7 2 -1 22 9
44 23 22 14 65 39 95 57 30 18 102 61 159 97 57 35 105 64 106 64 13 0 390
263 470 327 219 175 318 270 478 453 63 71 197 266 190 274 -4 3 -1 6 5 6 7 0
11 3 10 8 -1 4 16 43 38 87 22 44 48 103 58 130 10 28 24 64 32 82 8 17 14 37
14 45 0 8 3 18 7 22 4 3 8 13 10 21 4 22 9 38 16 55 36 86 115 446 121 551 2
26 6 51 8 55 3 5 9 38 12 73 4 36 9 68 12 73 3 4 0 8 -7 8 -9 0 -9 3 0 14 7 8
13 63 16 128 2 62 4 118 5 123 6 28 -2 46 -23 54 -13 5 -57 29 -98 53 -40 24
-81 47 -89 51 -8 4 -33 18 -55 32 -22 14 -52 30 -67 36 -16 6 -28 15 -28 20 0
5 -5 9 -11 9 -6 0 -54 27 -107 59 -130 80 -128 79 -128 34 -2 -75 -14 -319
-19 -363 -3 -25 -7 -79 -10 -120 -3 -41 -7 -88 -9 -105 -2 -16 -7 -59 -11 -95
-4 -36 -9 -74 -11 -85 -2 -11 -7 -38 -10 -60 -7 -50 -11 -73 -18 -105 -10 -43
-19 -95 -18 -97 1 -2 -5 -21 -13 -43 -8 -22 -15 -44 -15 -48 -7 -79 -112 -333
-177 -430 -13 -18 -23 -37 -23 -42 0 -6 -4 -10 -8 -10 -5 0 -15 -12 -23 -27
-25 -50 -200 -232 -284 -298 -27 -22 -52 -42 -55 -45 -3 -4 -61 -48 -130 -98
-69 -51 -130 -96 -135 -100 -6 -5 -60 -41 -120 -82 -61 -40 -111 -77 -113 -82
-2 -4 -8 -8 -13 -8 -5 0 -65 -34 -132 -77 -169 -106 -219 -136 -238 -148 -10
-5 -50 -29 -91 -53 -40 -23 -91 -53 -113 -67 -22 -13 -51 -30 -65 -38 -14 -7
-122 -68 -241 -135 l-217 -122 -133 81 c-155 95 -395 241 -457 278 -44 27
-255 172 -282 195 -9 7 -22 15 -30 19 -8 4 -31 20 -51 35 -20 15 -67 49 -105
77 -38 27 -71 52 -74 55 -3 3 -27 23 -55 45 -115 90 -297 264 -368 349 -23 28
-44 53 -47 56 -14 14 -90 120 -110 155 -13 22 -27 42 -30 45 -7 6 -41 77 -41
87 0 5 -6 15 -13 23 -7 8 -28 53 -46 100 -18 47 -36 94 -41 105 -15 35 -58
169 -62 195 -3 14 -12 50 -21 79 -9 30 -19 75 -22 100 -3 25 -10 54 -15 64 -6
9 -8 17 -5 17 2 0 0 17 -5 38 -5 20 -11 62 -15 92 -3 30 -8 58 -10 61 -2 4 -6
31 -9 60 -10 84 -14 120 -20 169 -4 24 -7 59 -8 77 -1 18 -6 33 -11 33 -5 0
-3 6 3 13 6 8 9 16 6 19 -5 5 -18 202 -19 295 -1 41 -5 53 -16 52 -8 0 -114
-59 -235 -131z"/>
</g>
</svg>
